<svg width="129" height="66" viewBox="0 0 129 66" fill="none" xmlns="http://www.w3.org/2000/svg">
<g filter="url(#filter0_d_455_639)">
<path d="M32.4519 30.7791V1.00684H39.1917V20.8138L52.0618 1.00684H58.7881V30.7791H52.0618V10.971L39.1917 30.7791H32.4519Z" fill="#4C2896"/>
<path d="M83.0312 18.447H70.9572V30.7791H64.249V1.00684H70.9572V12.2543H83.0312V1.00684H89.7721V30.7791H83.0312V18.447Z" fill="#4C2896"/>
<path d="M108.965 0.687622C100.421 0.687622 93.4949 7.63601 93.4949 16.2092C93.4949 24.7823 100.421 31.7307 108.965 31.7307C117.508 31.7307 124.435 24.7823 124.435 16.2092C124.435 7.63601 117.508 0.687622 108.965 0.687622ZM108.965 24.8311C104.219 24.8311 100.37 20.9723 100.37 16.2092C100.37 11.4472 104.216 7.58608 108.965 7.58608C113.711 7.58608 117.56 11.4472 117.56 16.2092C117.56 20.9723 113.712 24.8311 108.965 24.8311Z" fill="#4C2896"/>
<path d="M17.8404 15.3657L30.611 30.7726H21.5948L11.3007 18.2068V30.7726H4.56543V23.8923V13.211V3.78806V1.00598H11.3007V9.88548V13.3438L21.2996 1.06839H29.4552L17.8404 15.3657Z" fill="#4C2896"/>
<path d="M9.97988 46.3264C8.4849 46.3264 7.22854 45.8442 6.21078 44.8843C5.19189 43.921 4.68188 42.6831 4.68188 41.1639C4.68188 39.6265 5.1885 38.3829 6.20287 37.4299C7.2161 36.4768 8.47473 36.0002 9.97874 36.0002C10.7217 36.0002 11.4307 36.1216 12.1036 36.3656C12.7776 36.6118 13.3396 36.9386 13.7897 37.3527L11.7813 39.7808C11.424 39.294 10.8868 39.0501 10.1732 39.0501C9.61348 39.0501 9.14531 39.243 8.76988 39.6287C8.39331 40.0157 8.20559 40.5274 8.20559 41.1616C8.20559 41.7777 8.39557 42.2803 8.77666 42.6684C9.15662 43.0542 9.62253 43.247 10.1732 43.247C10.8789 43.247 11.416 42.9849 11.7813 42.4607L13.7908 44.8752C12.8273 45.8419 11.5574 46.3264 9.97988 46.3264Z" fill="#4C2896"/>
<path d="M15.5244 46.0499V36.2775H18.6331V41.508H18.6885L21.5495 36.2775H24.9488V46.0499H21.839V41.1098H21.7848L19.0051 46.0499H15.5244Z" fill="#4C2896"/>
<path d="M27.5894 46.0499V36.2775H30.8643V39.5894H33.5331V36.2775H36.808V46.0499H33.5331V42.3374H30.8643V46.0499H27.5894Z" fill="#4C2896"/>
<path d="M39.4497 46.0499V36.2775H46.1488V39.0096H42.5301V39.8526H45.9294V42.4055H42.5301V43.3166H46.3829V46.0499H39.4497Z" fill="#4C2896"/>
<path d="M48.5698 46.0499V36.2775H52.8489L54.6096 41.5375H54.6786L56.2064 36.2775H60.6212V46.0499H57.4435L57.5397 40.555L57.4582 40.5425L55.6421 46.0499H53.3307L51.5417 40.5289H51.4738L51.6242 46.0499H48.5698Z" fill="#4C2896"/>
<path d="M62.1355 46.0499L65.9758 36.2775H69.4554L73.2517 46.0499H69.6884L69.1806 44.6146H66.0844L65.6049 46.0499H62.1355ZM66.8681 42.1026H68.4512L67.6676 39.687L66.8681 42.1026Z" fill="#4C2896"/>
<path d="M79.0312 46.0499V36.2775H88.2476V46.0499H84.9716V39.0244H82.305V46.0499H79.0312Z" fill="#4C2896"/>
<path d="M89.7607 46.0499L93.5999 36.2775H97.0829L100.877 46.0499H97.3148L96.807 44.6146H93.7108L93.229 46.0499H89.7607ZM94.4933 42.1026H96.0742L95.2906 39.687L94.4933 42.1026Z" fill="#4C2896"/>
<path d="M102.391 46.0499V36.2775H106.573C107.106 36.2775 107.595 36.3319 108.045 36.4431C108.494 36.5532 108.915 36.7279 109.304 36.9673C109.696 37.2056 110.001 37.546 110.226 37.9885C110.448 38.4298 110.561 38.9552 110.561 39.5622C110.561 40.1408 110.448 40.6514 110.226 41.0939C110.001 41.5375 109.697 41.8859 109.318 42.1446C108.935 42.4021 108.513 42.5927 108.05 42.7164C107.588 42.8401 107.093 42.9025 106.571 42.9025H105.649V46.0499H102.391ZM105.652 40.4041H106.339C106.614 40.4041 106.849 40.3337 107.04 40.1953C107.233 40.058 107.329 39.856 107.329 39.5883C107.329 39.0834 106.999 38.8292 106.339 38.8292H105.652V40.4041Z" fill="#4C2896"/>
<path d="M112.627 46.0499V36.2775H115.819V39.8799H115.832L118.431 36.2775H122.286L118.623 40.749L122.464 46.0499H118.446L115.845 42.157H115.819V46.0499H112.627Z" fill="#4C2896"/>
<path d="M8.86946 57.8038V56.7044C7.63232 56.6851 6.64962 56.3878 5.91796 55.8046C5.03478 55.1136 4.59375 54.156 4.59375 52.9329C4.59375 51.5838 5.05626 50.5842 5.98129 49.933C6.66997 49.461 7.63232 49.2023 8.86946 49.1614V48.34H11.8583V49.1614C13.0943 49.2045 14.0566 49.461 14.7464 49.933C15.6715 50.5831 16.1329 51.5827 16.1329 52.9329C16.1329 54.156 15.6918 55.1136 14.8098 55.8046C14.0781 56.3878 13.0943 56.6862 11.8583 56.7044V57.8038H8.86946ZM8.93279 54.1742V51.6814C8.04055 51.7994 7.595 52.2181 7.595 52.934C7.595 53.642 8.04055 54.0573 8.93279 54.1742ZM11.7949 54.1742C12.686 54.0562 13.1327 53.642 13.1327 52.9352C13.1327 52.2169 12.686 51.8005 11.7949 51.6825V54.1742Z" fill="#4C2896"/>
<path d="M25.642 56.4771C24.7 57.3621 23.5149 57.8046 22.0855 57.8046C20.655 57.8046 19.4722 57.3621 18.5347 56.4771C17.5984 55.5921 17.1279 54.4405 17.1279 53.0222C17.1279 51.613 17.595 50.4807 18.5279 49.6252C19.4609 48.7697 20.6471 48.3419 22.0855 48.3419C23.5228 48.3419 24.7091 48.7697 25.6477 49.6252C26.584 50.4807 27.0533 51.613 27.0533 53.0222C27.0545 54.4416 26.584 55.5921 25.642 56.4771ZM22.0867 55.0237C22.5899 55.0237 23.0117 54.8353 23.3476 54.4598C23.6834 54.0842 23.8519 53.6065 23.8519 53.0222C23.8519 52.4504 23.6845 51.9852 23.3532 51.63C23.0207 51.2749 22.5989 51.099 22.0855 51.099C21.5721 51.099 21.1503 51.2749 20.8167 51.63C20.4843 51.9852 20.3192 52.4481 20.3192 53.0222C20.3192 53.6065 20.4843 54.0842 20.8167 54.4598C21.1503 54.8353 21.5721 55.0237 22.0867 55.0237Z" fill="#4C2896"/>
<path d="M28.5042 57.5545V48.5956H32.3388C32.8262 48.5956 33.2763 48.6466 33.6879 48.7476C34.0996 48.8486 34.484 49.0074 34.8414 49.2276C35.1987 49.4477 35.4803 49.7597 35.6861 50.1648C35.8931 50.5675 35.996 51.0486 35.996 51.6068C35.996 52.139 35.8931 52.6064 35.6861 53.0104C35.4803 53.4154 35.2033 53.7365 34.8538 53.9737C34.5055 54.2085 34.1176 54.3833 33.6936 54.499C33.2684 54.6124 32.8172 54.668 32.3377 54.668H31.493V57.5545H28.5042ZM31.4941 52.3784H32.124C32.375 52.3784 32.591 52.3126 32.7674 52.1878C32.9438 52.063 33.032 51.8769 33.032 51.6318C33.032 51.1678 32.729 50.9352 32.124 50.9352H31.4941V52.3784Z" fill="#4C2896"/>
<path d="M37.3203 57.5549V48.5948H41.2421L42.8558 53.4158H42.9191L44.3191 48.5948H48.3675V57.5549H45.4545L45.5427 52.5172L45.4669 52.5047L43.8023 57.5549H41.6842L40.0434 52.4922H39.9823L40.1203 57.5549H37.3203Z" fill="#4C2896"/>
<path d="M51.735 57.7429C51.1549 57.7429 50.6042 57.6749 50.0828 57.541L50.4481 55.1242C50.7591 55.2332 51.0667 55.2899 51.3697 55.2899C51.899 55.2899 52.2733 55.0766 52.4927 54.6454L52.5175 54.5944L49.1375 48.5968H52.6182L54.1437 51.9371L55.5188 48.5968H58.9113L55.495 55.316C55.0653 56.1499 54.5508 56.7638 53.9492 57.1575C53.3476 57.5466 52.6091 57.7429 51.735 57.7429Z" fill="#4C2896"/>
<path d="M59.643 57.6419C59.0447 57.6419 58.5449 57.5908 58.1423 57.4898L58.3312 55.0481C58.4827 55.0992 58.6591 55.123 58.8615 55.123C59.0289 55.123 59.1714 55.0992 59.289 55.0481C59.4066 54.9971 59.5287 54.8916 59.6554 54.7316C59.7798 54.5705 59.8759 54.3106 59.9381 53.9476C60.0014 53.5868 60.032 53.125 60.032 52.569V48.5956H67.7273V57.5545H64.725V51.1133H62.9088V52.1254C62.9088 53.2044 62.841 54.1064 62.7064 54.8269C62.573 55.5496 62.3626 56.1135 62.0765 56.522C61.7904 56.9316 61.4546 57.2198 61.0678 57.39C60.6811 57.5568 60.2061 57.6419 59.643 57.6419Z" fill="#4C2896"/>
<path d="M68.5449 57.5545L72.0641 48.5956H75.2531L78.7338 57.5545H75.4657L75.0009 56.2384H72.1625L71.7203 57.5545H68.5449ZM72.884 53.9328H74.3348L73.6145 51.7192L72.884 53.9328Z" fill="#4C2896"/>
<path d="M82.8977 57.5549V48.5948H85.8198V51.8966H85.8345L88.2217 48.5948H91.7511L88.3959 52.6953L91.9139 57.5549H88.2319L85.8481 53.9854H85.8198V57.5549H82.8977Z" fill="#4C2896"/>
<path d="M92.7065 57.5549V48.5948H95.5585V53.3897H95.6094L98.233 48.5948H101.347V57.5549H98.4953V53.0233H98.4467L95.9012 57.5549H92.7065Z" fill="#4C2896"/>
<path d="M103.201 57.5549V48.5948H106.203V51.6311H108.65V48.5948H111.65V57.5549H108.65V54.1511H106.203V57.5549H103.201Z" fill="#4C2896"/>
<path d="M121.613 56.4771C120.672 57.3621 119.486 57.8046 118.056 57.8046C116.628 57.8046 115.442 57.3621 114.506 56.4771C113.567 55.5921 113.101 54.4405 113.101 53.0222C113.101 51.613 113.565 50.4807 114.499 49.6252C115.432 48.7697 116.618 48.3419 118.056 48.3419C119.493 48.3419 120.681 48.7697 121.618 49.6252C122.555 50.4807 123.024 51.613 123.024 53.0222C123.027 54.4416 122.555 55.5921 121.613 56.4771ZM118.056 55.0237C118.561 55.0237 118.981 54.8353 119.319 54.4598C119.655 54.0842 119.82 53.6065 119.82 53.0222C119.82 52.4504 119.655 51.9852 119.324 51.63C118.991 51.2749 118.569 51.099 118.054 51.099C117.543 51.099 117.12 51.2749 116.788 51.63C116.455 51.9852 116.29 52.4481 116.29 53.0222C116.29 53.6065 116.455 54.0842 116.788 54.4598C117.12 54.8353 117.544 55.0237 118.056 55.0237Z" fill="#4C2896"/>
</g>
<defs>
<filter id="filter0_d_455_639" x="0" y="0" width="129" height="67" filterUnits="userSpaceOnUse" color-interpolation-filters="sRGB">
<feFlood flood-opacity="0" result="BackgroundImageFix"/>
<feColorMatrix in="SourceAlpha" type="matrix" values="0 0 0 0 0 0 0 0 0 0 0 0 0 0 0 0 0 0 127 0" result="hardAlpha"/>
<feOffset dy="4"/>
<feGaussianBlur stdDeviation="2"/>
<feComposite in2="hardAlpha" operator="out"/>
<feColorMatrix type="matrix" values="0 0 0 0 0 0 0 0 0 0 0 0 0 0 0 0 0 0 0.25 0"/>
<feBlend mode="normal" in2="BackgroundImageFix" result="effect1_dropShadow_455_639"/>
<feBlend mode="normal" in="SourceGraphic" in2="effect1_dropShadow_455_639" result="shape"/>
</filter>
</defs>
</svg>
